<svg data-v-0dd9719b="" version="1.0" xmlns="http://www.w3.org/2000/svg" xmlns:xlink="http://www.w3.org/1999/xlink" width="100%" height="100%" viewBox="0 0 340.000000 250.000000" preserveAspectRatio="xMidYMid meet" color-interpolation-filters="sRGB" style="margin: auto;"> <rect data-v-0dd9719b="" x="0" y="0" width="100%" height="100%" fill="#fff" fill-opacity="1" class="background"></rect> <rect data-v-0dd9719b="" x="0" y="0" width="100%" height="100%" fill="url(#watermark)" fill-opacity="1" class="watermarklayer"></rect> <g data-v-0dd9719b="" fill="#333" class="icon-text-wrapper icon-svg-group iconsvg" transform="translate(103.32499694824219,67.42374420166016)"><g class="iconsvg-imagesvg" transform="translate(36.67500305175781,0)"><g><rect fill="#333" fill-opacity="0" stroke-width="2" x="0" y="0" width="60" height="48" class="image-rect"></rect> <svg x="0" y="0" width="60" height="48" filtersec="colorsb343389397" class="image-svg-svg primary" style="overflow: visible;"><svg xmlns="http://www.w3.org/2000/svg" viewBox="0 0 125 100"><title>资源 17</title><path d="M0 100L62.5 0l29.78 47.79S37.13 55.15 0 100z" fill="#1b62a6"></path><path d="M52.57 100H125L93 49.26S61.76 65.81 52.57 100z" fill="#333"></path></svg></svg> <!----></g></g> <g transform="translate(0,55)"><g data-gra="path-name" fill-rule="" class="tp-name iconsvg-namesvg" transform="translate(0,0)"><g transform="scale(1)"><g><path d="M34.15-12.9L34.15-32.25 12.15-32.25 12.15-12.8 4.9-12.8 4.9-38.25 17.8-38.25 18.15-41 25.4-40.05 25.1-38.25 41.4-38.25 41.4-12.9 34.15-12.9ZM26.7-31.05L26.7-24.8 33.05-24.8 33.05-19.85 26.7-19.85 26.7-13.85 19.7-13.85 19.7-19.85 13.2-19.85 13.2-24.8 19.7-24.8 19.7-31.05 26.7-31.05ZM18.65-25.8L13.6-25.8 13.6-30.65 18.65-30.65 18.65-25.8ZM32.7-25.8L27.65-25.8 27.65-30.65 32.7-30.65 32.7-25.8ZM13.3-18.85L18.65-18.85 18.65-13.85 13.3-13.85 13.3-18.85ZM27.65-18.85L32.95-18.85 32.95-13.85 27.65-13.85 27.65-18.85ZM42.85-4.25L27.55-4.25 43.35-2.1 42.45 4.2 23.1 1.3 4 4.2 3.2-2.1 19-4.25 3.5-4.25 3.5-10.5 19.75-10.5 19.75-12.95 27-12.95 27-10.5 42.85-10.5 42.85-4.25ZM74.9-40.65L82.05-39.5 81.5-36.1 89.8-36.1 89.8 3.85 67.35 3.85 67.35-36.1 74.2-36.1 74.9-40.65ZM53.85-34.75L53.85-39.95 61.1-39.95 61.1-34.75 65.85-34.75 65.85 0.65 61.45 0.65 61.45-27.8 60.2-27.8 60.2 3.85 54.5 3.85 54.5-27.8 53.25-27.8 53.25 0.6 49 0.6 49-34.75 53.85-34.75ZM74.6-29.35L74.6-2.9 82.55-2.9 82.55-29.35 74.6-29.35ZM75.9-13.15L75.9-19.9 81.25-19.9 81.25-13.15 75.9-13.15ZM102.8-31.25L102.8-39.95 108.7-39.95 108.7-31.25 111.6-31.25 111.6-24.5 108.7-24.5 108.7-13.05 111.55-13.05 111.55-6.3 108.7-6.3 108.7 4 101.55 4 101.55-6.3 95.55-6.3 95.55-13.05 101.55-13.05 101.55-24.5 96.2-24.5 96.2-38.25 101.5-38.25 101.5-31.25 102.8-31.25ZM135.6-29.8L128.45-29.8 128.45-27 136.55-27 136.55-20.25 112.55-20.25 112.55-27 121.2-27 121.2-29.8 113.5-29.8 113.5-36.55 121.2-36.55 121.2-39.95 128.45-39.95 128.45-36.55 135.6-36.55 135.6-29.8ZM125.7-16.8L125.7-19.1 132.95-19.1 132.95-16.8 136.35-16.8 136.35-10.05 132.95-10.05 132.95 3.9 125.7 3.9 125.7-10.05 112.8-10.05 112.8-16.8 125.7-16.8ZM121.95-8.45L121.95 0.95 115.2 0.95 115.2-8.45 121.95-8.45Z" transform="translate(-3.200000047683716, 41)"></path></g> <!----> <!----> <!----> <!----> <!----> <!----> <!----></g></g> <g data-gra="path-slogan" fill-rule="" class="tp-slogan iconsvg-slogansvg" fill="#333" transform="translate(5,51.20000457763672)"><rect x="0" height="1" y="3.9750008583068848" width="38.730003356933594"></rect> <rect height="1" y="3.9750008583068848" width="38.730003356933594" x="84.62000274658203"></rect> <g transform="translate(41.730003356933594,0)"><g transform="scale(1)"><path d="M7.69-4.27L7.69-4.27Q7.50-7.64 4.69-7.83L4.69-7.83Q1.83-7.69 1.69-4.27L1.69-4.27Q1.83-0.94 4.69-0.80L4.69-0.80Q7.50-0.98 7.69-4.27ZM8.86-4.27L8.86-4.27Q8.58 0 4.69 0.14L4.69 0.14Q0.75 0 0.47-4.27L0.47-4.27Q0.70-8.72 4.69-8.81L4.69-8.81Q8.58-8.67 8.86-4.27ZM13.88-7.64L11.53-7.64L11.53-4.64L13.83-4.64Q15.61-4.64 15.61-6.19L15.61-6.19Q15.61-7.59 13.88-7.64L13.88-7.64ZM14.25-3.61L11.53-3.61L11.53 0L10.36 0L10.36-8.58L14.25-8.58Q16.69-8.48 16.78-6.19L16.78-6.19Q16.64-3.70 14.25-3.61L14.25-3.61ZM21.84-7.64L19.50-7.64L19.50-4.64L21.80-4.64Q23.58-4.64 23.58-6.19L23.58-6.19Q23.58-7.59 21.84-7.64L21.84-7.64ZM22.22-3.61L19.50-3.61L19.50 0L18.33 0L18.33-8.58L22.22-8.58Q24.66-8.48 24.75-6.19L24.75-6.19Q24.61-3.70 22.22-3.61L22.22-3.61ZM31.83 0L30.98-2.48L27.52-2.48L26.63 0L25.45 0L28.69-8.58L30-8.58L33.09 0L31.83 0ZM29.25-7.31L27.89-3.52L30.56-3.52L29.30-7.31L29.25-7.31ZM36.33-7.59L33.42-7.59L33.42-8.58L40.36-8.58L40.36-7.59L37.45-7.59L37.45 0L36.33 0L36.33-7.59Z" transform="translate(-0.46875, 8.8125)"></path></g></g></g></g></g><defs v-gra="od"></defs></svg>